<svg xmlns="http://www.w3.org/2000/svg" xmlns:xlink="http://www.w3.org/1999/xlink" id="Layer_1" x="0px" y="0px" viewBox="0 0 250 126" style="enable-background:new 0 0 250 126;" xml:space="preserve"><style type="text/css">	.st0{fill:#231F20;}	.st1{fill:#F5333F;}</style><g>	<g>		<path class="st0" d="M245.7,91.9c-1.8-1-4.4-1.8-7.3-1.8c-7.7,0-10.6,4.6-10.6,9c0,3.4,1.4,5.9,5.3,8.3l5.9,3.7   c2.5,1.5,3.7,3.2,3.7,5c0,2.7-2.2,5-6.3,5c-3.6,0-6.5-1.5-8.3-3l0,5.1c2,1,4.9,2,8.4,2c7.2,0,10.7-4.4,10.7-9.3   c0-3.6-1.6-6.1-5.8-8.7l-5.9-3.7c-2.2-1.3-3.2-2.7-3.2-4.5c0-2.9,2.2-4.8,5.9-4.8c2.9,0,5.6,1.2,7.4,2.6L245.7,91.9z M210.2,124.8   l4.3,0l-0.1-29.9l9,0l0-4.1l-22.4,0.1l0,4.1l9.1,0L210.2,124.8z M185.4,96.5l5.5,14.7l-10.9,0L185.4,96.5z M195.9,124.8l4.9,0   l-13-34l-4.9,0l-12.7,34.1l4.9,0l3.4-9.5l13.8-0.1L195.9,124.8z M167.9,124.9l0-4.1l-14,0.1L153.7,91l-4.3,0l0.1,34L167.9,124.9z    M137.7,101.3c0,4.2-2.7,6.1-6.2,6.1l-5.7,0l-0.1-12.2l5.7,0C135,95.2,137.7,97.1,137.7,101.3 M121.5,125.1l4.3,0l-0.1-13.6l5.7,0   c6.4,0,10.7-3.8,10.7-10.3c0-6.4-4.4-10.2-10.8-10.2l-10,0L121.5,125.1z"></path>	</g>	<path class="st0" d="M2.7,91.6l0.1,34l7.1,0l-0.1-34L2.7,91.6z M39.6,91.5l-8.5,25.8l-8.8-25.7l-8,0l12.8,34l8,0l12.5-34.1  L39.6,91.5z M62.8,100.7l3.8,10.6l-7.5,0L62.8,100.7z M58.8,91.4l-12.5,34.1l8,0l2.5-7.3l12.2-0.1l2.6,7.2l8,0l-12.8-34L58.8,91.4z   M105.1,91.2l0.1,21.7l-15-21.6l-8.4,0l0,0.5l2.4,3.7l0.1,29.8l7.1,0l-0.1-19.7l13.9,19.6l7.1,0l-0.1-34L105.1,91.2z"></path>	<rect x="109.3" y="13" transform="matrix(0.7075 -0.7067 0.7067 0.7075 22.7925 81.0365)" class="st0" width="0" height="0"></rect>	<polygon class="st1" points="109.3,13 121.9,25.6 136.9,40.6 136.9,40.6 147.5,51.2 134.9,63.8 109.3,38.3 109.3,38.3 96.7,25.6   96.7,25.6 84,38.3 45.8,76.5 71.1,76.5 96.7,50.9 122.2,76.5 122.2,76.5 147.5,76.5 147.5,76.5 172.8,76.5 198,76.5 172.8,51.2   160.1,38.6 134.6,13 121.9,0.4  "></polygon>	<polygon class="st0" points="84.9,76.5 108.4,76.5 96.7,64.7  "></polygon>	<rect x="87.7" y="4" transform="matrix(0.7071 -0.7071 0.7071 0.7071 19.1305 72.1452)" class="st0" width="17.9" height="17.9"></rect></g></svg>